<?xml version="1.0" encoding="utf-8"?>
<!-- Generator: Adobe Illustrator 16.0.4, SVG Export Plug-In . SVG Version: 6.00 Build 0)  -->
<!DOCTYPE svg PUBLIC "-//W3C//DTD SVG 1.1//EN" "http://www.w3.org/Graphics/SVG/1.1/DTD/svg11.dtd">
<svg version="1.1" id="レイヤー_1" xmlns="http://www.w3.org/2000/svg" xmlns:xlink="http://www.w3.org/1999/xlink" x="0px"
	 y="0px" width="30px" height="30px" viewBox="0 0 30 30" enable-background="new 0 0 30 30" xml:space="preserve">
<path fill="#FFFFFF" d="M30,26.401C30,28.381,28.381,30,26.401,30H3.599C1.62,30,0,28.381,0,26.401V3.599C0,1.619,1.62,0,3.599,0
	h22.803C28.381,0,30,1.619,30,3.599V26.401z M26.665,4.699c0-0.77-0.63-1.399-1.399-1.399h-3.133c-0.77,0-1.398,0.63-1.398,1.399
	v3.132c0,0.77,0.629,1.399,1.398,1.399h3.133c0.77,0,1.399-0.629,1.399-1.399V4.699z M23.91,12.696
	c0.188,0.735,0.289,1.505,0.289,2.299c0,5.097-4.133,9.229-9.229,9.229c-5.098,0-9.23-4.133-9.23-9.229
	c0-0.794,0.101-1.564,0.289-2.299H3.475v12.462c0,0.77,0.629,1.398,1.399,1.398h20.392c0.77,0,1.399-0.629,1.399-1.398V12.696H23.91
	z M14.97,9.23c-3.184,0-5.765,2.581-5.765,5.765s2.581,5.765,5.765,5.765s5.765-2.581,5.765-5.765S18.153,9.23,14.97,9.23z"/>
</svg>
